<?xml version="1.0" standalone="no"?><!DOCTYPE svg PUBLIC "-//W3C//DTD SVG 1.1//EN" "http://www.w3.org/Graphics/SVG/1.1/DTD/svg11.dtd"><svg t="1764723713574" class="icon" viewBox="0 0 1024 1024" version="1.1" xmlns="http://www.w3.org/2000/svg" p-id="9424" xmlns:xlink="http://www.w3.org/1999/xlink" width="32" height="32"><path d="M508.065684 931.974737c-123.984842 0-190.868211-216.387368-190.86821-419.94779h76.341894c0 209.758316 67.853474 343.578947 114.526316 343.578948 25.950316 0 65.751579-46.133895 91.701895-147.509895l73.970526 18.970947c-33.360842 130.236632-93.749895 204.907789-165.672421 204.90779zM219.001263 527.575579c-81.569684-87.417263-108.112842-167.504842-74.64421-225.549474 28.752842-49.744842 95.932632-69.793684 189.359158-56.32 81.542737 11.776 177.367579 47.616 269.797052 100.944842l-38.184421 66.15579c-84.210526-48.613053-170.334316-81.111579-242.526316-91.540211-56.858947-8.192-100.971789-0.754526-112.316631 18.944-11.749053 20.399158 3.557053 70.090105 64.377263 135.221895l-55.861895 52.116211v0.026947z m384.512 149.773474l-38.184421-66.182737c181.625263-104.825263 263.653053-230.480842 240.289684-270.95579-12.126316-21.018947-67.584-32.821895-160.498526-9.162105l-18.836211-74.024421c121.667368-30.908632 211.132632-14.497684 245.490527 45.056 61.952 107.331368-91.971368 273.434947-268.261053 375.269053z" fill="#338FFF" p-id="9425"></path><path d="M508.065684 92.079158c123.957895 0 190.868211 216.387368 190.868211 419.920842h-76.341895c0-209.731368-67.826526-343.578947-114.526316-343.578947-21.180632 0-52.143158 31.582316-77.123368 100.513684a622.861474 622.861474 0 0 0-74.428632-19.159579c35.220211-101.807158 88.602947-157.696 151.552-157.696z m248.858948 474.165895a644.257684 644.257684 0 0 0 53.733052-54.703158c70.063158 80.788211 92.429474 156.133053 61.062737 210.458947-22.905263 39.612632-70.197895 60.362105-135.706947 60.389053a375.269053 375.269053 0 0 1-53.598316-4.122948c-81.569684-11.722105-177.394526-47.589053-269.797053-100.917894l38.184421-66.182737c84.183579 48.64 170.307368 81.111579 242.499369 91.567158 56.858947 8.165053 100.971789 0.754526 112.316631-18.917053 10.778947-18.593684-1.374316-61.574737-48.693894-117.571368z m-420.298106 134.063158c5.658947 25.977263 12.476632 50.741895 20.48 73.835789-27.701895 5.362526-53.571368 8.218947-77.015579 8.218947-65.293474 0-112.693895-20.48-135.733894-60.335158-61.978947-107.412211 91.944421-273.515789 268.234105-375.296l38.184421 66.128843C269.204211 517.712842 187.122526 643.395368 210.458947 683.789474c10.644211 18.432 54.110316 29.372632 126.113685 16.491789v0.026948z" fill="#A5CEFF" p-id="9426"></path></svg>