<?xml version="1.0" standalone="no"?><!DOCTYPE svg PUBLIC "-//W3C//DTD SVG 1.1//EN" "http://www.w3.org/Graphics/SVG/1.1/DTD/svg11.dtd"><svg t="1764665879698" class="icon" viewBox="0 0 1024 1024" version="1.1" xmlns="http://www.w3.org/2000/svg" p-id="10619" xmlns:xlink="http://www.w3.org/1999/xlink" width="32" height="32"><path d="M853.016756 810.864527a85.254189 85.254189 0 1 0-170.508378 0 85.254189 85.254189 0 0 0 170.508378 0z m0-639.406417a85.254189 85.254189 0 1 0-170.508378 0 85.254189 85.254189 0 0 0 170.508378 0zM170.983244 555.10196a85.254189 85.254189 0 1 0 170.508378 0 85.254189 85.254189 0 0 0-170.508378 0z m767.287701-383.64385a170.508378 170.508378 0 0 1-255.634686 147.702882l-213.817506 230.228938 182.571846 136.8756a170.508378 170.508378 0 1 1-45.866754 72.125044l-190.031587-142.45975a170.508378 170.508378 0 1 1-3.623303-130.438909l209.853186-226.008855A170.508378 170.508378 0 1 1 938.270945 171.45811z" fill="#cf2b25" p-id="10620"></path></svg>