<?xml version="1.0" standalone="no"?><!DOCTYPE svg PUBLIC "-//W3C//DTD SVG 1.1//EN" "http://www.w3.org/Graphics/SVG/1.1/DTD/svg11.dtd"><svg t="1764722797653" class="icon" viewBox="0 0 1024 1024" version="1.1" xmlns="http://www.w3.org/2000/svg" p-id="1699" xmlns:xlink="http://www.w3.org/1999/xlink" width="32" height="32"><path d="M934.4 981.312H89.6a46.08 46.08 0 0 1-46.912-46.848V89.6A46.08 46.08 0 0 1 89.6 42.688h844.8a46.08 46.08 0 0 1 46.912 46.848V934.4c0 24.96-20.352 46.848-46.912 46.848zM136.512 887.68h750.976V136.384H136.512v751.232z" fill="#172B4D" p-id="1700"></path><path d="M781.056 979.776a46.08 46.08 0 0 1-46.912-46.848V89.536a46.08 46.08 0 0 1 46.912-46.848 46.08 46.08 0 0 1 46.976 46.848v843.392c0 24.96-20.352 46.848-46.976 46.848zM242.944 772.032H89.6a46.08 46.08 0 0 1-46.912-46.848 46.08 46.08 0 0 1 46.912-46.848h153.344a46.08 46.08 0 0 1 46.912 46.848 46.08 46.08 0 0 1-46.912 46.848z" fill="#172B4D" p-id="1701"></path><path d="M934.4 558.08H89.6a46.08 46.08 0 0 1-46.912-46.848 46.08 46.08 0 0 1 46.912-46.848h844.8a46.08 46.08 0 0 1 46.912 46.848 46.08 46.08 0 0 1-46.912 46.848zM242.944 344.128H89.6a46.08 46.08 0 0 1-46.912-46.912 46.08 46.08 0 0 1 46.912-46.848h153.344a46.08 46.08 0 0 1 46.912 46.848 46.08 46.08 0 0 1-46.912 46.912zM934.4 772.032h-153.344a46.08 46.08 0 0 1-46.912-46.848 46.08 46.08 0 0 1 46.912-46.848H934.4a46.08 46.08 0 0 1 46.912 46.848 46.08 46.08 0 0 1-46.912 46.848zM934.4 344.128h-153.344a46.08 46.08 0 0 1-46.912-46.912 46.08 46.08 0 0 1 46.912-46.848H934.4a46.08 46.08 0 0 1 46.912 46.848 46.08 46.08 0 0 1-46.912 46.912z" fill="#172B4D" p-id="1702"></path><path d="M242.944 979.776a46.08 46.08 0 0 1-46.976-46.848V89.536a46.08 46.08 0 0 1 46.976-46.848 46.08 46.08 0 0 1 46.912 46.848v843.392c0 24.96-20.352 46.848-46.912 46.848z" fill="#172B4D" p-id="1703"></path></svg>