<?xml version="1.0" standalone="no"?><!DOCTYPE svg PUBLIC "-//W3C//DTD SVG 1.1//EN" "http://www.w3.org/Graphics/SVG/1.1/DTD/svg11.dtd"><svg t="1764723074738" class="icon" viewBox="0 0 1024 1024" version="1.1" xmlns="http://www.w3.org/2000/svg" p-id="1855" xmlns:xlink="http://www.w3.org/1999/xlink" width="32" height="32"><path d="M819.029333 622.506667a21.333333 21.333333 0 0 1 25.130667-10.752l3.584 1.408 86.186667 43.904a48.042667 48.042667 0 0 1 5.674666 82.048l-5.034666 3.072-401.365334 216.661333a46.72 46.72 0 0 1-23.296 6.101333c-6.016 0-11.946667-1.109333-17.578666-3.328l-5.546667-2.56-397.610667-217.002666a49.152 49.152 0 0 1-19.669333-20.053334 48.426667 48.426667 0 0 1 16.384-62.592l4.565333-2.688 85.76-43.093333a21.333333 21.333333 0 0 1 22.442667 36.053333l-3.285333 2.048-85.461334 42.965334c-2.816 1.450667-3.925333 4.949333-2.645333 7.466666l1.066667 1.450667 1.365333 1.066667 397.44 216.874666a5.930667 5.930667 0 0 0 2.773333 0.725334l1.28-0.128 1.28-0.554667 401.92-217.045333a5.333333 5.333333 0 0 0 2.986667-4.48 6.272 6.272 0 0 0-1.493333-3.84l-1.493334-1.28-86.016-43.733334a21.333333 21.333333 0 0 1-9.344-28.714666z" fill="#1DA9A0" p-id="1856"></path><path d="M819.84 428.032a21.333333 21.333333 0 0 1 25.130667-10.794667l3.541333 1.450667 86.229333 43.861333a48.042667 48.042667 0 0 1 5.674667 82.048l-5.034667 3.072-401.365333 216.704a46.72 46.72 0 0 1-23.296 6.101334c-6.016 0-11.946667-1.109333-17.578667-3.328l-5.546666-2.56-397.653334-217.002667a49.152 49.152 0 0 1-19.626666-20.096 48.426667 48.426667 0 0 1 16.384-62.549333l4.565333-2.730667 85.76-43.093333a21.333333 21.333333 0 0 1 22.4 36.096l-3.242667 2.048-85.461333 42.922666c-2.816 1.493333-3.925333 4.992-2.645333 7.509334l1.066666 1.450666 1.365334 1.024 397.397333 216.917334a5.930667 5.930667 0 0 0 2.816 0.725333l1.28-0.170667 1.28-0.512 401.92-217.045333a5.333333 5.333333 0 0 0 2.944-4.48 6.272 6.272 0 0 0-1.450667-3.882667l-1.493333-1.237333-86.016-43.776a21.333333 21.333333 0 0 1-9.344-28.672z" fill="#1DA9A0" p-id="1857"></path><path d="M492.288 69.162667L90.069333 271.701333c-23.637333 12.330667-32.938667 41.472-20.693333 65.109334 4.565333 8.533333 11.392 15.488 19.712 20.053333l397.653333 217.045333c7.168 3.84 15.061333 5.888 23.04 5.888 8.192 0 16.256-2.048 23.338667-6.101333l401.365333-216.746667a48 48 0 0 0-0.64-85.077333l-398.08-202.666667a48.213333 48.213333 0 0 0-43.477333 0z m24.192 38.101333L914.346667 309.76c1.706667 0.853333 2.901333 2.858667 2.944 5.12a5.333333 5.333333 0 0 1-2.901334 4.48l-402.005333 217.002667a4.736 4.736 0 0 1-2.56 0.725333 5.930667 5.930667 0 0 1-2.773333-0.725333L109.653333 319.488a6.229333 6.229333 0 0 1-2.432-2.517333 5.674667 5.674667 0 0 1 2.346667-7.338667l402.005333-202.368a5.546667 5.546667 0 0 1 4.949334 0z" fill="#1DA9A0" p-id="1858"></path></svg>