<?xml version="1.0" standalone="no"?><!DOCTYPE svg PUBLIC "-//W3C//DTD SVG 1.1//EN" "http://www.w3.org/Graphics/SVG/1.1/DTD/svg11.dtd"><svg t="1764666492821" class="icon" viewBox="0 0 1024 1024" version="1.1" xmlns="http://www.w3.org/2000/svg" p-id="10765" xmlns:xlink="http://www.w3.org/1999/xlink" width="32" height="32"><path d="M461.824 921.4976c16.7936-0.0256 33.6128-0.0768 50.432-0.0768l45.312 0.0256c39.7824 0.0256 79.5904 0.0768 119.3984-0.1536a271.0528 271.0528 0 0 0 38.272-2.8416c117.1456-17.408 206.208-120.7552 206.2592-239.0528l0.0512-68.608c0.0512-88.6272 0.128-177.28-0.1536-265.8816-0.128-45.952-12.288-88.9088-37.376-127.4368-48.128-73.856-117.12-112.8192-204.928-114.1504-90.368-1.3568-180.8128-0.9216-271.232-0.512-20.7872 0.1024-41.5744 0.2048-62.336 0.256-33.4848 0.128-66.176 6.5024-96.4864 20.992-93.1328 44.544-143.104 119.168-145.3056 222.0544-1.9456 88.8576-1.3568 177.792-0.768 266.7008 0.1536 22.016 0.2816 44.0576 0.384 66.0992 0.2304 44.9024 11.5712 87.3472 35.8656 125.3888 49.1008 76.8 119.6544 116.0448 210.8416 117.0176 37.248 0.384 74.496 0.2816 111.744 0.2048z" fill="#AD1118" p-id="10766"></path><path d="M263.1936 354.048l57.8048-33.4848 141.7728 245.5296c-3.1488 0.256-5.1712 0.7168-7.168 0.5888-50.56-3.4816-87.1424-28.5184-112-72.192-25.1648-44.288-50.816-88.2944-76.2112-132.4288-1.3568-2.3808-2.5088-4.8384-4.1984-8.0384zM440.6528 496.8448a128.7168 128.7168 0 0 1-17.1264-49.2288c-4.1472-31.5648 2.7136-60.7488 18.7392-88.1664 25.984-44.4928 51.6096-89.216 77.3888-133.8112 1.5104-2.6112 3.1488-5.1712 5.1712-8.448l57.9584 33.408-142.1312 246.2464zM584.3712 527.8464c8.9344 14.976 13.952 29.5424 16.4864 44.928a130.816 130.816 0 0 1-16.0256 88.6272c-26.624 46.3872-53.4528 92.6464-80.2304 138.9312-1.2288 2.1248-2.6624 4.1472-4.5568 7.0912l-57.8048-33.3568 142.1312-246.2208zM561.9456 458.0096a124.6464 124.6464 0 0 1 59.008 13.1584 128.5632 128.5632 0 0 1 56.064 52.0448c27.3152 47.2064 54.5792 94.464 81.8688 141.696 0.9472 1.6384 1.6384 3.4048 2.816 5.8112l-57.728 33.3568-142.0288-246.0672zM774.6048 441.856h-283.904c1.4848-2.8672 2.3552-5.0688 3.6864-6.9888 26.6496-38.8096 63.6928-59.008 110.6432-59.5968 53.4528-0.64 106.9056 0 160.3584-0.3072 7.424-0.0512 9.5488 2.048 9.3696 9.4208-0.512 18.8416-0.1536 37.7088-0.1536 57.472zM251.008 582.784h283.3664c-8.2432 16.0512-19.4304 28.16-32.64 38.4-24.9088 19.2-53.12 28.4928-84.7104 28.3136-52.096-0.3072-104.2176-0.256-156.3136 0.0768-7.5776 0.0512-10.112-1.8432-9.8816-9.7024 0.5632-18.8672 0.1792-37.7344 0.1792-57.088zM641.536 618.1888l52.8128 91.4688c-7.8592 4.4544-14.7456 9.088-22.2208 12.3904-7.7568 3.4048-12.3904-1.6128-16-7.936-12.8256-22.4256-25.7536-44.8-38.656-67.2-1.92-3.328-3.7888-6.7328-6.2208-11.0336l30.3104-17.664zM251.1104 570.2144c0-8.3456-0.3584-16.3328 0.0768-24.32 0.384-6.656 5.0944-9.856 11.2896-9.9072 29.4656-0.2048 58.9056-0.2048 88.3712 0.0512 1.792 0.0256 4.9664 2.8672 5.0432 4.5312 0.4864 9.6512 0.2304 19.328 0.2304 29.6448H251.1104zM330.6496 314.9568c7.9872-4.48 15.0016-8.9088 22.4512-12.4672 5.5552-2.6624 10.6496-0.3584 13.6192 4.736 15.6928 26.8288 31.1296 53.76 47.1296 81.5104l-30.3616 17.7664-52.8384-91.5456zM774.3744 454.1184c0 8.448 0.4096 16.1792-0.1536 23.8848-0.4352 6.272-4.4544 10.496-10.9056 10.5472-30.6432 0.128-61.2864-0.0512-91.904-0.128-0.4864 0-0.9728-0.512-1.9456-1.024v-33.28h104.9088zM485.3504 677.0688l-52.736 91.392c-7.7824-4.608-15.7952-8.1152-22.0928-13.568-2.7904-2.4064-4.4032-9.984-2.688-13.1072 14.976-27.3408 30.7968-54.1952 46.976-82.176l30.5408 17.4592zM592.384 256.2048c7.8336 4.5056 14.6688 8.1664 21.1968 12.3136 5.0944 3.2512 7.1168 8.5504 4.1728 13.7984-15.5136 27.5712-31.4368 54.8864-47.5392 82.816l-30.5152-17.536 52.7104-91.392zM486.4768 512.6656c-0.128-15.232 10.9056-26.368 26.112-26.368 14.592 0 25.984 11.2128 26.1632 25.7024 0.1792 14.592-11.7248 26.5984-26.3168 26.5728a25.856 25.856 0 0 1-25.9584-25.9072z" fill="#FFFFFF" p-id="10767"></path></svg>